<?xml version="1.0" standalone="no"?>
<!DOCTYPE svg PUBLIC "-//W3C//DTD SVG 20010904//EN"
 "http://www.w3.org/TR/2001/REC-SVG-20010904/DTD/svg10.dtd">
<svg version="1.0" xmlns="http://www.w3.org/2000/svg"
 width="614.000000pt" height="623.000000pt" viewBox="0 0 614.000000 623.000000"
 preserveAspectRatio="xMidYMid meet">

<g transform="translate(0.000000,623.000000) scale(0.100000,-0.100000)"
fill="#000000" stroke="none">
<path d="M0 3115 l0 -3115 3070 0 3070 0 0 3115 0 3115 -3070 0 -3070 0 0
-3115z m3245 2864 c190 -22 363 -66 545 -138 102 -41 276 -127 234 -116 -177
46 -238 58 -344 71 -390 44 -755 -26 -1108 -212 -516 -271 -865 -756 -979
-1359 -13 -69 -17 -144 -17 -320 0 -212 2 -240 27 -358 85 -400 266 -730 550
-1004 285 -274 659 -455 1052 -509 146 -20 391 -20 529 0 60 9 112 16 115 16
29 -2 -142 -63 -294 -106 -347 -99 -781 -92 -1125 18 -180 57 -383 151 -524
242 -520 337 -861 899 -927 1526 -15 140 -7 399 16 530 37 207 94 383 189 585
288 606 907 1044 1596 1130 131 16 347 18 465 4z m745 -348 c476 -104 862
-360 1115 -741 178 -268 268 -534 296 -869 39 -484 -159 -1007 -515 -1355
-252 -246 -561 -408 -916 -478 -98 -20 -145 -23 -320 -22 -182 0 -219 3 -330
27 -69 14 -154 36 -190 48 -73 24 -309 124 -322 137 -4 4 42 -5 103 -20 419
-105 887 -23 1259 220 321 210 554 529 663 908 81 280 78 625 -8 909 -15 50
-33 104 -40 120 -8 17 -27 61 -44 98 -128 288 -397 570 -701 735 -280 152
-626 218 -940 178 -69 -8 -136 -18 -150 -21 -39 -8 54 32 149 66 195 69 338
89 596 84 155 -3 222 -8 295 -24z m-320 -661 c177 -37 255 -44 317 -30 32 7
70 19 85 27 39 19 46 17 64 -19 14 -27 14 -33 2 -42 -7 -6 -45 -37 -83 -68
-320 -260 -419 -338 -431 -338 -42 0 -222 33 -309 56 -55 15 -115 29 -132 32
l-33 4 0 -241 0 -241 374 0 c418 0 386 6 386 -76 0 -41 -4 -48 -62 -102 -34
-31 -87 -81 -117 -109 l-56 -53 -262 0 -263 0 0 -194 0 -195 53 -5 c28 -4 115
-11 192 -16 292 -21 417 -9 543 50 35 16 66 30 68 30 8 0 54 -56 54 -67 0 -6
-11 -20 -24 -30 -13 -10 -134 -118 -269 -240 l-246 -223 -78 0 c-72 1 -130 7
-288 30 -242 37 -350 34 -440 -11 l-46 -23 -34 35 -34 34 38 62 c26 42 40 79
44 115 10 83 8 1196 -3 1267 -5 36 -18 76 -28 90 -26 35 -85 39 -148 12 -26
-12 -50 -21 -55 -21 -7 0 -49 71 -49 83 0 6 108 99 289 252 79 66 160 135 180
152 45 40 65 41 123 4 51 -32 90 -78 113 -135 l16 -38 37 28 c20 15 39 31 42
34 3 3 28 23 55 45 28 21 64 51 80 66 17 15 44 30 60 32 48 8 183 -4 275 -23z
m-1687 -3895 c37 -1 70 -4 72 -7 3 -3 -29 -33 -71 -68 -82 -68 -85 -68 -196
-44 l-28 6 0 -71 0 -71 115 0 c132 0 142 -8 78 -66 -35 -33 -40 -34 -115 -34
l-78 0 0 -59 0 -60 56 -7 c68 -8 160 0 180 17 12 10 17 10 27 0 9 -10 -5 -28
-68 -87 l-80 -75 -75 8 c-75 7 -137 8 -175 1 -16 -2 -19 2 -16 22 7 45 12 415
6 439 -5 20 -10 23 -40 18 -21 -4 -35 -1 -38 6 -6 15 135 137 158 137 9 0 26
-11 39 -25 l23 -25 39 31 c35 27 43 30 79 23 22 -4 70 -8 108 -9z m216 -174
c15 -16 49 -83 76 -148 79 -192 105 -213 105 -85 0 92 -32 142 -80 127 -11 -3
-20 1 -23 10 -5 10 16 32 68 70 41 30 81 55 89 55 24 0 63 -49 76 -95 16 -56
6 -124 -27 -190 -27 -52 -152 -180 -187 -191 -31 -10 -66 37 -120 161 -63 144
-78 165 -121 165 -19 0 -36 4 -39 9 -6 10 128 141 145 141 6 0 23 -13 38 -29z
m629 -1 c23 -16 48 -43 57 -60 l16 -31 75 62 74 62 25 -23 c14 -13 27 -32 31
-43 5 -17 10 -15 49 23 53 52 75 50 130 -11 l37 -41 26 25 c40 37 94 67 122
67 14 0 58 -7 99 -15 41 -9 87 -13 103 -10 48 11 33 -18 -39 -74 -37 -28 -75
-51 -85 -51 -9 0 -39 14 -65 30 -55 35 -86 41 -59 11 9 -10 57 -35 107 -56
106 -44 140 -79 146 -153 6 -56 -21 -104 -77 -136 -50 -30 -207 -30 -264 -1
-67 34 -67 45 0 108 63 60 83 68 91 37 3 -12 24 -26 57 -38 70 -26 106 -34
106 -24 0 17 -37 41 -141 89 -112 53 -149 83 -149 120 0 30 -11 29 -40 -2 -30
-32 -53 -32 -70 0 -14 26 -43 41 -60 30 -6 -3 -10 -48 -10 -100 0 -97 5 -109
44 -110 39 0 26 -25 -44 -80 -79 -65 -88 -64 -121 10 -14 31 -19 65 -19 146 0
152 -15 159 -140 59 -103 -83 -111 -91 -99 -106 18 -22 75 -28 108 -11 25 13
32 13 41 2 9 -11 -1 -24 -47 -60 -120 -94 -129 -99 -163 -85 -43 18 -97 87
-120 154 -34 96 -26 138 42 212 99 108 154 126 226 74z m1190 9 c25 -12 56
-39 71 -60 14 -21 29 -38 33 -39 4 0 36 25 72 56 77 65 94 65 125 0 17 -35 21
-62 21 -154 0 -62 4 -113 10 -117 5 -3 26 1 45 11 35 16 35 17 35 83 0 82 -8
96 -49 88 -52 -11 -37 22 40 86 77 65 93 67 124 15 16 -27 21 -57 25 -163 5
-130 5 -130 30 -133 35 -5 47 -19 28 -34 -107 -87 -130 -101 -146 -91 -10 5
-26 33 -38 61 l-20 51 -74 -60 c-41 -33 -81 -58 -89 -57 -9 2 -26 23 -38 48
-20 37 -23 60 -23 150 0 58 -4 111 -9 118 -4 8 -19 12 -31 10 -20 -2 -26 -13
-37 -61 -7 -33 -20 -71 -29 -85 -23 -37 -199 -182 -221 -182 -47 0 -119 71
-142 139 -16 50 -13 131 7 169 24 45 180 171 211 172 14 0 45 -10 69 -21z
m776 -5 c14 -15 26 -31 26 -35 0 -18 21 -8 57 26 20 19 41 35 46 35 32 0 118
-78 116 -106 0 -5 -24 -28 -54 -51 l-53 -42 -27 34 c-26 35 -61 46 -71 22 -2
-7 -1 -56 3 -108 8 -88 9 -94 30 -92 11 1 26 -3 32 -10 7 -10 -8 -27 -61 -69
-61 -47 -74 -54 -90 -45 -34 22 -49 73 -55 197 -6 125 -13 141 -53 120 -13 -7
-19 -6 -24 6 -4 9 8 26 31 47 21 18 53 47 73 64 19 18 38 33 41 33 4 0 18 -12
33 -26z"/>
<path d="M2667 823 c-13 -12 -7 -61 13 -108 l20 -46 36 27 c29 23 34 32 29 53
-12 50 -75 97 -98 74z"/>
<path d="M3857 813 c-4 -3 -7 -31 -7 -61 0 -40 7 -67 27 -104 26 -48 74 -85
93 -73 15 9 12 85 -5 141 -22 73 -80 126 -108 97z"/>
</g>
</svg>
